<?xml version="1.0" encoding="UTF-8"?>
<svg width="64" height="64" viewBox="0 0 64 64" fill="none" xmlns="http://www.w3.org/2000/svg">
    <rect width="64" height="64" rx="32" fill="#F0EBFF"/>
    <path d="M44 36C44 40.4183 40.4183 44 36 44H24C19.5817 44 16 40.4183 16 36C16 31.5817 19.5817 28 24 28C24.0688 28 24.1373 28.0012 24.2054 28.0037C25.3535 24.0957 28.9238 21.3333 33.0909 21.3333C38.0636 21.3333 42.1018 25.3715 42.1018 30.3442C42.1018 30.8237 42.0704 31.295 42.0097 31.7559C43.2115 32.7334 44 34.2527 44 36Z" fill="#6B46C1"/>
    <circle cx="24" cy="36" r="2" fill="#F0EBFF"/>
    <circle cx="32" cy="36" r="2" fill="#F0EBFF"/>
    <circle cx="40" cy="36" r="2" fill="#F0EBFF"/>
</svg> 